<svg viewBox="0 0 300 228" width="300" height="228" fill="none" xmlns="http://www.w3.org/2000/svg"><g opacity=".7" clip-path="url(#clip0)"><path d="M241.641.137H.103v154.841h241.538V.137z" fill="#E6E6E6"/><path d="M234.734 19.558H7.01v126.26h227.724V19.558z" fill="#fff"/><path d="M241.538 0H0v10.271h241.538V0z" fill="#70AC76"/><path d="M7.626 7.155a1.903 1.903 0 1 0-.002-3.806 1.903 1.903 0 0 0 .002 3.806zM14.845 7.155a1.903 1.903 0 1 0-.002-3.806 1.903 1.903 0 0 0 .002 3.806zM22.064 7.155a1.903 1.903 0 1 0-.002-3.806 1.903 1.903 0 0 0 .002 3.806z" fill="#fff"/><path d="M86.216 32.658H27.702v100.059h58.514V32.658z" fill="#E6E6E6"/><path d="M145.079 32.658H96.317v27.543h48.762V32.658z" fill="#70AC76"/><path d="M145.079 67.87H96.317v29.635h48.762V67.871zM145.079 105.175H96.317v27.542h48.762v-27.542zM214.042 32.658h-58.514v43.605h58.514V32.658z" fill="#E6E6E6"/><path d="M214.042 89.112h-58.514v43.605h58.514V89.112z" fill="#70AC76"/><path d="M276.342 77.608c-3.86-6.584-11.496-6.891-11.496-6.891s-7.441-.961-12.214 9.067c-4.45 9.348-10.59 18.373-.989 20.561l1.734-5.45 1.074 5.856a37.29 37.29 0 0 0 4.108.071c10.282-.335 20.074.098 19.759-3.627-.419-4.952 1.738-13.251-1.976-19.587z" fill="#2F2E41"/><path d="M239.74 112.765l-3.377 8.637-16.881 15.771s-10.129 7.51-5.627 9.763 8.628-8.261 8.628-8.261l18.007-10.89 3.751-12.391-4.501-2.629zM245.367 208.518l3.376 8.637h4.877l-4.127-10.139-4.126 1.502zM259.997 212.273l3.376 8.637h4.877l-4.126-10.139-4.127 1.502z" fill="#FFB8B8"/><path d="M259.622 213.775l6.377-1.502-8.253-33.419 2.74-25.715.074-.007s4.689-18.212.938-23.094c-3.752-4.881-22.509-3.004-22.509-3.004s-7.127 7.135-6.752 23.281c.375 16.147 0 30.041 2.626 36.424 2.626 6.384 10.128 23.281 10.128 23.281l6.003-.751-6.378-27.787-1.019-24.155c.811 9.68 2.444 28.035 3.27 29.412 1.126 1.878 12.755 27.036 12.755 27.036z" fill="#2F2E41"/><path d="M278.754 120.651l2.626 9.387 11.629 21.029s10.129 9.012 6.003 10.138c-4.127 1.127-10.504-8.261-10.504-8.261l-13.13-18.4-3.376-13.518 6.752-.375zM265.249 93.99c5.18 0 9.379-4.203 9.379-9.387 0-5.185-4.199-9.388-9.379-9.388s-9.378 4.203-9.378 9.388c0 5.184 4.198 9.387 9.378 9.387z" fill="#FFB8B8"/><path d="M260.372 89.484l-2.251 7.135-3.751 8.261 13.88-5.633s-.75-6.008 0-7.51l-7.878-2.253z" fill="#FFB8B8"/><path d="M276.503 104.504l-8.628-7.134-9.754 4.13.383-6.093-10.407 3.327-1.605.513-2.251 11.641s-1.5 1.126-3.001 7.51a55.063 55.063 0 0 1-3.751 10.889s16.131-6.383 24.009 2.253c0 0 1.125-.751.75-1.877-.375-1.127 3.376-6.759 3.376-6.759s0 1.126 1.501-1.127c1.5-2.253 2.626-2.628 2.626-2.628l6.752-14.645z" fill="#70AC76"/><path d="M248.743 100.374l-1.639-1.322s-1.362-.556-2.488 1.322c-1.125 1.877-6.752 13.518-6.752 13.518l6.752 3.379 4.127-16.897zM271.251 104.129l5.252.375s3.001 1.502 3.001 3.755.751 14.269.751 14.269l-8.253 2.629-3.377-10.514 2.626-10.514z" fill="#70AC76"/><path d="M247.659 215.841l-6.378 2.628s-7.502.376-6.377 4.131c1.126 3.755 12.38 1.126 12.38 1.126s10.128.376 10.128-2.253c0-2.628-1.5-5.632-3.001-5.632h-6.752z" fill="#2F2E41"/><path d="M261.914 219.22l-6.377 2.628s-7.503.376-6.378 4.131c1.126 3.755 12.38 1.126 12.38 1.126s10.129.376 10.129-2.253c0-2.628-1.501-5.632-3.001-5.632h-6.753zM274.636 76.974l-7.545-3.99-10.418 1.632-2.155 9.612 5.365-.208 1.499-3.532v3.474l2.476-.097 1.437-5.622.898 5.985 8.802-.182-.359-7.072z" fill="#2F2E41"/><path d="M224.176 31.372a50.607 50.607 0 0 0-54.885-6.813 50.67 50.67 0 0 0-21.247 19.532 50.736 50.736 0 0 0-7.147 27.974 50.728 50.728 0 0 0 9.269 27.344 50.664 50.664 0 0 0 22.68 17.844 50.616 50.616 0 0 0 54.201-11.005l62.13 52.475a4.66 4.66 0 0 0 5.154.58 4.66 4.66 0 0 0 2.304-2.733c.186-.584.255-1.2.204-1.812a4.678 4.678 0 0 0-1.642-3.176l-62.13-52.475a50.738 50.738 0 0 0-8.891-67.735zm-4.006 62.681a37.945 37.945 0 0 1-18.484 12.001 37.913 37.913 0 0 1-22.029-.301 37.95 37.95 0 0 1-18.15-12.502 38.013 38.013 0 0 1-3.559-42.056 37.964 37.964 0 0 1 15.79-15.379 37.917 37.917 0 0 1 41.902 4.71 37.994 37.994 0 0 1 13.34 25.825 38.005 38.005 0 0 1-8.81 27.703z" fill="#3F3D56"/><path opacity=".3" d="M166.695 98.588a38.015 38.015 0 0 1-6.439-51.064 37.999 37.999 0 0 0-10.916 30.001 38.002 38.002 0 0 0 13.34 25.826 37.936 37.936 0 0 0 27.677 8.819 37.944 37.944 0 0 0 27.709-15.819 37.936 37.936 0 0 1-25.249 11.155 37.93 37.93 0 0 1-26.122-8.918z" fill="#000"/></g><defs><clipPath id="clip0"><path fill="#fff" d="M0 0h300v228H0z"/></clipPath></defs></svg>