<svg viewBox="0 0 37 57" width="37" height="57" fill="none" xmlns="http://www.w3.org/2000/svg"><path fill-rule="evenodd" clip-rule="evenodd" d="M0 0h37v10.931a16.975 16.975 0 0 0-.477-.182 17.255 17.255 0 0 0-6.085-1.097c-1.61 0-3.165.215-4.665.644a17.193 17.193 0 0 0-4.19 1.787 17.538 17.538 0 0 0-3.552 2.765 18.015 18.015 0 0 0-2.77 3.598 18.174 18.174 0 0 0-1.776 4.219 17.815 17.815 0 0 0-.615 4.695c0 1.62.205 3.186.615 4.695a18.771 18.771 0 0 0 1.776 4.218 18.328 18.328 0 0 0 2.77 3.575 18.242 18.242 0 0 0 3.552 2.788c1.31.763 2.707 1.351 4.19 1.764 1.5.43 3.055.644 4.665.644A17.257 17.257 0 0 0 37 43.76v12.425l-18.5-7.12L0 56.185V0zm34.7 17.374c.835.352 1.602.8 2.3 1.345V35.98a10.381 10.381 0 0 1-2.3 1.366 10.866 10.866 0 0 1-4.262.858c-1.5 0-2.905-.286-4.215-.858a10.983 10.983 0 0 1-3.433-2.336 11.14 11.14 0 0 1-2.32-3.432 10.545 10.545 0 0 1-.853-4.218c0-1.494.284-2.9.853-4.218a10.707 10.707 0 0 1 2.32-3.456 10.983 10.983 0 0 1 3.433-2.336c.574-.25 1.167-.446 1.777-.587v4.188a3.167 3.167 0 0 0-.49-.038c-.467 0-.907.094-1.32.282a3.352 3.352 0 0 0-1.077.764 3.622 3.622 0 0 0-.983 2.522v8.497h2.256v-8.497c0-.166.029-.32.086-.464.058-.144.136-.269.236-.374.105-.11.225-.196.361-.257.137-.06.283-.091.44-.091a1.042 1.042 0 0 1 .794.349c.105.104.186.229.244.373.057.143.086.298.086.464v8.497h2.256v-8.497c0-.166.028-.32.086-.464.058-.144.136-.269.236-.374.105-.11.225-.196.361-.257.136-.06.283-.091.44-.091a1.042 1.042 0 0 1 .794.349c.105.104.186.229.244.373.062.143.094.298.094.464v8.497h2.247v-8.497c0-.492-.089-.954-.267-1.386a3.445 3.445 0 0 0-.723-1.136 3.242 3.242 0 0 0-1.076-.764 3.1 3.1 0 0 0-1.313-.282H32v-4.309c.926.135 1.826.392 2.7.77z" fill="#fff"/></svg>